<?xml version="1.0" encoding="UTF-8"?>
<svg xmlns="http://www.w3.org/2000/svg" viewBox="-5 -13 70 70" width="180" height="180">
    <!-- Background Rectangle -->
    <rect x="-5" y="-10" width="80" height="80" fill="#2870f0" />

    <!-- White Foreground Path -->
    <path
            d="M30.3 41.703a23.845 23.845 0 0 0 16.972-7.03 23.845 23.845 0 0 0 7.03-16.972v-.493h-2.815v.493c0 5.66-2.204 10.98-6.205 14.982A21.049 21.049 0 0 1 30.3 38.888c-5.66 0-10.98-2.203-14.982-6.205A21.048 21.048 0 0 1 9.113 17.7v-.493H6.298v.493a23.844 23.844 0 0 0 7.03 16.972 23.845 23.845 0 0 0 16.972 7.03zm0-38.888c8.208 0 14.886 6.678 14.886 14.886 0 8.209-6.678 14.887-14.886 14.887-8.208 0-14.887-6.678-14.887-14.887 0-8.208 6.679-14.886 14.887-14.886zm0 32.588c4.728 0 9.173-1.842 12.517-5.185A17.586 17.586 0 0 0 48 17.701c0-4.728-1.84-9.173-5.184-12.516A17.586 17.586 0 0 0 30.3 0a17.586 17.586 0 0 0-12.517 5.185A17.586 17.586 0 0 0 12.6 17.7c0 4.729 1.84 9.174 5.184 12.517A17.586 17.586 0 0 0 30.3 35.403zm27.485-18.195v.493c0 7.342-2.859 14.244-8.05 19.435-5.191 5.191-12.094 8.05-19.435 8.05-7.341 0-14.244-2.859-19.435-8.05-5.191-5.191-8.05-12.093-8.05-19.435v-.493H0v.493c0 4.09.801 8.058 2.382 11.795a30.197 30.197 0 0 0 6.493 9.63A30.2 30.2 0 0 0 30.3 48.002a30.2 30.2 0 0 0 21.425-8.875 30.199 30.199 0 0 0 6.493-9.63A30.113 30.113 0 0 0 60.6 17.7v-.493h-2.815z"
            fill="white"
            fill-rule="evenodd"
    />
</svg>
